{
  "accessors": [
    {
      "bufferView": 2,
      "componentType": 5126,
      "count": 65532,
      "max": [
        6.771484375,
        0.8312751054763794,
        0.4602774977684021
      ],
      "min": [
        -0.011554116383194923,
        -3.3627941608428955,
        -0.7787981629371643
      ],
      "type": "VEC3"
    },
    {
      "bufferView": 2,
      "byteOffset": 786384,
      "componentType": 5126,
      "count": 65532,
      "max": [
        0.9999999403953552,
        1.0,
        0.9999774694442749
      ],
      "min": [
        -0.9999904632568359,
        -1.0,
        -0.9999988079071045
      ],
      "type": "VEC3"
    },
    {
      "bufferView": 1,
      "componentType": 5126,
      "count": 65532,
      "max": [
        1.0000001192092896,
        1.0000001192092896
      ],
      "min": [
        -1.1102231569740545e-16,
        -0.00010954843310173601
      ],
      "type": "VEC2"
    },
    {
      "bufferView": 0,
      "componentType": 5125,
      "count": 365334,
      "type": "SCALAR"
    },
    {
      "bufferView": 2,
      "byteOffset": 1572768,
      "componentType": 5126,
      "count": 65532,
      "max": [
        0.8440892100334167,
        0.8312750458717346,
        0.4602774977684021
      ],
      "min": [
        -6.771484375,
        -3.3627939224243164,
        -0.7818374037742615
      ],
      "type": "VEC3"
    },
    {
      "bufferView": 2,
      "byteOffset": 2359152,
      "componentType": 5126,
      "count": 65532,
      "max": [
        0.9999910593032837,
        1.0,
        0.9999774098396301
      ],
      "min": [
        -0.9999999403953552,
        -1.0,
        -0.9999988079071045
      ],
      "type": "VEC3"
    },
    {
      "bufferView": 1,
      "byteOffset": 524256,
      "componentType": 5126,
      "count": 65532,
      "max": [
        0.8750001192092896,
        1.0000001192092896
      ],
      "min": [
        0.0,
        -0.00010954843310173601
      ],
      "type": "VEC2"
    },
    {
      "bufferView": 0,
      "byteOffset": 1461336,
      "componentType": 5125,
      "count": 362913,
      "type": "SCALAR"
    },
    {
      "bufferView": 2,
      "byteOffset": 3145536,
      "componentType": 5126,
      "count": 6859,
      "max": [
        -0.9751964807510376,
        -0.5888497829437256,
        0.45962873101234436
      ],
      "min": [
        -6.660994529724121,
        -1.774232268333435,
        -0.3574368357658386
      ],
      "type": "VEC3"
    },
    {
      "bufferView": 2,
      "byteOffset": 3227844,
      "componentType": 5126,
      "count": 6859,
      "max": [
        0.9999449849128723,
        0.9994118213653564,
        0.9998207092285156
      ],
      "min": [
        -0.9994922876358032,
        -0.9999991059303284,
        -0.999634861946106
      ],
      "type": "VEC3"
    },
    {
      "bufferView": 1,
      "byteOffset": 1048512,
      "componentType": 5126,
      "count": 6859,
      "max": [
        1.0000001192092896,
        1.0000001192092896
      ],
      "min": [
        -1.1102231569740545e-16,
        -1.1102231569740545e-16
      ],
      "type": "VEC2"
    },
    {
      "bufferView": 0,
      "byteOffset": 2912988,
      "componentType": 5125,
      "count": 37641,
      "type": "SCALAR"
    },
    {
      "bufferView": 2,
      "byteOffset": 3310152,
      "componentType": 5126,
      "count": 6370,
      "max": [
        6.23236083984375,
        0.7772082686424255,
        -0.038802869617938995
      ],
      "min": [
        -6.23236083984375,
        -3.29927659034729,
        -0.4798752963542938
      ],
      "type": "VEC3"
    },
    {
      "bufferView": 2,
      "byteOffset": 3386592,
      "componentType": 5126,
      "count": 6370,
      "max": [
        0.09830266237258911,
        0.1496230959892273,
        0.9995414018630981
      ],
      "min": [
        -0.09830204397439957,
        0.002418569289147854,
        0.988258421421051
      ],
      "type": "VEC3"
    },
    {
      "bufferView": 1,
      "byteOffset": 1103384,
      "componentType": 5126,
      "count": 6370,
      "max": [
        1.000000238418579,
        1.000000238418579
      ],
      "min": [
        0.0,
        0.0
      ],
      "type": "VEC2"
    },
    {
      "bufferView": 0,
      "byteOffset": 3063552,
      "componentType": 5125,
      "count": 36864,
      "type": "SCALAR"
    },
    {
      "bufferView": 2,
      "byteOffset": 3463032,
      "componentType": 5126,
      "count": 41700,
      "max": [
        6.428880214691162,
        -0.6654138565063477,
        11.590994834899902
      ],
      "min": [
        -6.428880214691162,
        -3.4401731491088867,
        5.035484313964844
      ],
      "type": "VEC3"
    },
    {
      "bufferView": 2,
      "byteOffset": 3963432,
      "componentType": 5126,
      "count": 41700,
      "max": [
        0.9993255138397217,
        0.999922513961792,
        0.9981955885887146
      ],
      "min": [
        -0.9993264079093933,
        -0.999996542930603,
        -0.8462095856666565
      ],
      "type": "VEC3"
    },
    {
      "bufferView": 1,
      "byteOffset": 1154344,
      "componentType": 5126,
      "count": 41700,
      "max": [
        0.5727996230125427,
        0.15454508364200592
      ],
      "min": [
        3.429524804232642e-05,
        3.4295255318284035e-05
      ],
      "type": "VEC2"
    },
    {
      "bufferView": 0,
      "byteOffset": 3211008,
      "componentType": 5125,
      "count": 236544,
      "type": "SCALAR"
    },
    {
      "bufferView": 2,
      "byteOffset": 4463832,
      "componentType": 5126,
      "count": 44495,
      "max": [
        6.754968643188477,
        -0.5918817520141602,
        3.1224539279937744
      ],
      "min": [
        -6.754968643188477,
        -0.9409840106964111,
        0.38255611062049866
      ],
      "type": "VEC3"
    },
    {
      "bufferView": 2,
      "byteOffset": 4997772,
      "componentType": 5126,
      "count": 44495,
      "max": [
        0.9999999403953552,
        0.9999967813491821,
        0.9871308207511902
      ],
      "min": [
        -0.9999999403953552,
        -0.9999967813491821,
        -0.9999916553497314
      ],
      "type": "VEC3"
    },
    {
      "bufferView": 1,
      "byteOffset": 1487944,
      "componentType": 5126,
      "count": 44495,
      "max": [
        0.9999659657478333,
        0.06580530107021332
      ],
      "min": [
        0.7200744152069092,
        0.0008417628123424947
      ],
      "type": "VEC2"
    },
    {
      "bufferView": 0,
      "byteOffset": 4157184,
      "componentType": 5125,
      "count": 247296,
      "type": "SCALAR"
    },
    {
      "bufferView": 2,
      "byteOffset": 5531712,
      "componentType": 5126,
      "count": 6800,
      "max": [
        6.5522847175598145,
        -0.6350646018981934,
        4.118560791015625
      ],
      "min": [
        -6.5522847175598145,
        -0.9466986656188965,
        3.090437650680542
      ],
      "type": "VEC3"
    },
    {
      "bufferView": 2,
      "byteOffset": 5613312,
      "componentType": 5126,
      "count": 6800,
      "max": [
        0.9982373118400574,
        0.9998837113380432,
        0.06441525369882584
      ],
      "min": [
        -0.9982376098632813,
        -0.999983012676239,
        -0.06036091223359108
      ],
      "type": "VEC3"
    },
    {
      "bufferView": 1,
      "byteOffset": 1843904,
      "componentType": 5126,
      "count": 6800,
      "max": [
        0.7335287928581238,
        0.06409764289855957
      ],
      "min": [
        0.616372287273407,
        0.0024882357101887465
      ],
      "type": "VEC2"
    },
    {
      "bufferView": 0,
      "byteOffset": 5146368,
      "componentType": 5125,
      "count": 36864,
      "type": "SCALAR"
    },
    {
      "bufferView": 2,
      "byteOffset": 5694912,
      "componentType": 5126,
      "count": 13600,
      "max": [
        6.693082332611084,
        -0.5987176895141602,
        2.4760615825653076
      ],
      "min": [
        -6.693081855773926,
        -0.9369325041770935,
        0.9519428610801697
      ],
      "type": "VEC3"
    },
    {
      "bufferView": 2,
      "byteOffset": 5858112,
      "componentType": 5126,
      "count": 13600,
      "max": [
        0.9980278015136719,
        0.9998517036437988,
        0.09568820893764496
      ],
      "min": [
        -0.9980271458625793,
        -0.9999779462814331,
        -0.09134475141763687
      ],
      "type": "VEC3"
    },
    {
      "bufferView": 1,
      "byteOffset": 1898304,
      "componentType": 5126,
      "count": 13600,
      "max": [
        0.9117488861083984,
        0.06580530107021332
      ],
      "min": [
        0.7786243557929993,
        0.0008417628123424947
      ],
      "type": "VEC2"
    },
    {
      "bufferView": 0,
      "byteOffset": 5293824,
      "componentType": 5125,
      "count": 73728,
      "type": "SCALAR"
    },
    {
      "bufferView": 2,
      "byteOffset": 6021312,
      "componentType": 5126,
      "count": 6836,
      "max": [
        6.493032455444336,
        -0.6502110362052917,
        5.073309898376465
      ],
      "min": [
        -6.493032932281494,
        -0.9511384963989258,
        4.082995891571045
      ],
      "type": "VEC3"
    },
    {
      "bufferView": 2,
      "byteOffset": 6103344,
      "componentType": 5126,
      "count": 6836,
      "max": [
        0.9986376762390137,
        0.9998946785926819,
        0.08416027575731277
      ],
      "min": [
        -0.9986382126808167,
        -0.9999916553497314,
        -0.07849454134702682
      ],
      "type": "VEC3"
    },
    {
      "bufferView": 1,
      "byteOffset": 2007104,
      "componentType": 5126,
      "count": 6836,
      "max": [
        0.6341806650161743,
        0.06263846904039383
      ],
      "min": [
        0.5507068634033203,
        0.00419907970353961
      ],
      "type": "VEC2"
    },
    {
      "bufferView": 0,
      "byteOffset": 5588736,
      "componentType": 5125,
      "count": 36864,
      "type": "SCALAR"
    },
    {
      "bufferView": 2,
      "byteOffset": 6185376,
      "componentType": 5126,
      "count": 17096,
      "max": [
        1.3727266788482666,
        -0.7063095569610596,
        0.4752519726753235
      ],
      "min": [
        -1.372726559638977,
        -1.7390211820602417,
        -0.08604975789785385
      ],
      "type": "VEC3"
    },
    {
      "bufferView": 2,
      "byteOffset": 6390528,
      "componentType": 5126,
      "count": 17096,
      "max": [
        0.999912440776825,
        0.9998517632484436,
        0.9989368319511414
      ],
      "min": [
        -0.999912440776825,
        -0.9986691474914551,
        -0.9993630051612854
      ],
      "type": "VEC3"
    },
    {
      "bufferView": 1,
      "byteOffset": 2061792,
      "componentType": 5126,
      "count": 17096,
      "max": [
        0.8750001192092896,
        1.0000001192092896
      ],
      "min": [
        0.125,
        0.0
      ],
      "type": "VEC2"
    },
    {
      "bufferView": 0,
      "byteOffset": 5736192,
      "componentType": 5125,
      "count": 90624,
      "type": "SCALAR"
    },
    {
      "bufferView": 2,
      "byteOffset": 6595680,
      "componentType": 5126,
      "count": 4186,
      "max": [
        6.603596210479736,
        -0.5839275121688843,
        0.4383948743343353
      ],
      "min": [
        -6.603596210479736,
        -0.5941728949546814,
        0.33052539825439453
      ],
      "type": "VEC3"
    },
    {
      "bufferView": 2,
      "byteOffset": 6645912,
      "componentType": 5126,
      "count": 4186,
      "max": [
        0.9999253153800964,
        1.0,
        0.9976701736450195
      ],
      "min": [
        -0.9999286532402039,
        -0.9999998807907104,
        -0.9988702535629272
      ],
      "type": "VEC3"
    },
    {
      "bufferView": 1,
      "byteOffset": 2198560,
      "componentType": 5126,
      "count": 4186,
      "max": [
        1.0000001192092896,
        1.0000001192092896
      ],
      "min": [
        0.0,
        0.0
      ],
      "type": "VEC2"
    },
    {
      "bufferView": 0,
      "byteOffset": 6098688,
      "componentType": 5125,
      "count": 21504,
      "type": "SCALAR"
    }
  ],
  "asset": {
    "extras": {
      "author": "Pratham.Bhatnagar (https://sketchfab.com/Pratham.Bhatnagar)",
      "license": "CC-BY-4.0 (http://creativecommons.org/licenses/by/4.0/)",
      "source": "https://sketchfab.com/3d-models/eyeglasses-specs-a9e23529a9a5417a8db9df961a7d42af",
      "title": "Eyeglasses (Specs)"
    },
    "generator": "Sketchfab-14.1.2",
    "version": "2.0"
  },
  "bufferViews": [
    {
      "buffer": 0,
      "byteLength": 6184704,
      "name": "floatBufferViews",
      "target": 34963
    },
    {
      "buffer": 0,
      "byteLength": 2232048,
      "byteOffset": 6184704,
      "byteStride": 8,
      "name": "floatBufferViews",
      "target": 34962
    },
    {
      "buffer": 0,
      "byteLength": 6696144,
      "byteOffset": 8416752,
      "byteStride": 12,
      "name": "floatBufferViews",
      "target": 34962
    }
  ],
  "buffers": [
    {
      "byteLength": 15112896,
      "uri": "scene.bin"
    }
  ],
  "extensionsUsed": [
    "KHR_materials_clearcoat",
    "KHR_materials_transmission"
  ],
  "materials": [
    {
      "doubleSided": true,
      "extensions": {
        "KHR_materials_clearcoat": {
          "clearcoatFactor": 1.0,
          "clearcoatRoughnessFactor": 0.04
        }
      },
      "name": "metalFrame",
      "pbrMetallicRoughness": {
        "baseColorFactor": [
          0.9459720830544086,
          0.6018418723488622,
          0.8047255420941569,
          1.0
        ],
        "roughnessFactor": 0.0
      }
    },
    {
      "alphaMode": "BLEND",
      "doubleSided": true,
      "extensions": {
        "KHR_materials_transmission": {
          "transmissionFactor": 0.977184646179493
        }
      },
      "name": "lens",
      "pbrMetallicRoughness": {
        "baseColorFactor": [
          1.0,
          1.0,
          1.0,
          0.25
        ],
        "metallicFactor": 0.0,
        "roughnessFactor": 0.08974039169399439
      }
    },
    {
      "alphaMode": "BLEND",
      "doubleSided": true,
      "name": "earstick",
      "pbrMetallicRoughness": {
        "baseColorFactor": [
          0.1541302863174803,
          0.036405622767897876,
          0.31418273577386646,
          0.7589907704288679
        ],
        "metallicFactor": 0.0,
        "roughnessFactor": 0.0
      }
    },
    {
      "doubleSided": true,
      "name": "black",
      "pbrMetallicRoughness": {
        "baseColorFactor": [
          0.0,
          0.0,
          0.0,
          1.0
        ],
        "metallicFactor": 0.0,
        "roughnessFactor": 0.0
      }
    },
    {
      "doubleSided": true,
      "name": "brown",
      "pbrMetallicRoughness": {
        "baseColorFactor": [
          0.390917,
          0.10052399999999997,
          0.052970599999999965,
          1.0
        ],
        "metallicFactor": 0.4730383358785128,
        "roughnessFactor": 0.053235825581183116
      }
    },
    {
      "doubleSided": true,
      "name": "white",
      "pbrMetallicRoughness": {
        "metallicFactor": 0.0,
        "roughnessFactor": 0.0
      }
    },
    {
      "doubleSided": true,
      "name": "material",
      "pbrMetallicRoughness": {
        "baseColorFactor": [
          0.4004462379002574,
          0.004353074292876134,
          0.0,
          1.0
        ],
        "metallicFactor": 0.5156269963434593,
        "roughnessFactor": 0.0
      }
    },
    {
      "alphaMode": "BLEND",
      "doubleSided": true,
      "name": "rubberPeice",
      "pbrMetallicRoughness": {
        "baseColorFactor": [
          0.8,
          0.8,
          0.8,
          0.19925409003242822
        ],
        "metallicFactor": 0.0,
        "roughnessFactor": 0.181818
      }
    },
    {
      "doubleSided": true,
      "name": "Material.001",
      "pbrMetallicRoughness": {
        "roughnessFactor": 0.0
      }
    }
  ],
  "meshes": [
    {
      "name": "Object_0",
      "primitives": [
        {
          "attributes": {
            "NORMAL": 1,
            "POSITION": 0,
            "TEXCOORD_0": 2
          },
          "indices": 3,
          "material": 0,
          "mode": 4
        }
      ]
    },
    {
      "name": "Object_1",
      "primitives": [
        {
          "attributes": {
            "NORMAL": 5,
            "POSITION": 4,
            "TEXCOORD_0": 6
          },
          "indices": 7,
          "material": 0,
          "mode": 4
        }
      ]
    },
    {
      "name": "Object_2",
      "primitives": [
        {
          "attributes": {
            "NORMAL": 9,
            "POSITION": 8,
            "TEXCOORD_0": 10
          },
          "indices": 11,
          "material": 0,
          "mode": 4
        }
      ]
    },
    {
      "name": "Object_3",
      "primitives": [
        {
          "attributes": {
            "NORMAL": 13,
            "POSITION": 12,
            "TEXCOORD_0": 14
          },
          "indices": 15,
          "material": 1,
          "mode": 4
        }
      ]
    },
    {
      "name": "Object_4",
      "primitives": [
        {
          "attributes": {
            "NORMAL": 17,
            "POSITION": 16,
            "TEXCOORD_0": 18
          },
          "indices": 19,
          "material": 2,
          "mode": 4
        }
      ]
    },
    {
      "name": "Object_5",
      "primitives": [
        {
          "attributes": {
            "NORMAL": 21,
            "POSITION": 20,
            "TEXCOORD_0": 22
          },
          "indices": 23,
          "material": 3,
          "mode": 4
        }
      ]
    },
    {
      "name": "Object_6",
      "primitives": [
        {
          "attributes": {
            "NORMAL": 25,
            "POSITION": 24,
            "TEXCOORD_0": 26
          },
          "indices": 27,
          "material": 4,
          "mode": 4
        }
      ]
    },
    {
      "name": "Object_7",
      "primitives": [
        {
          "attributes": {
            "NORMAL": 29,
            "POSITION": 28,
            "TEXCOORD_0": 30
          },
          "indices": 31,
          "material": 5,
          "mode": 4
        }
      ]
    },
    {
      "name": "Object_8",
      "primitives": [
        {
          "attributes": {
            "NORMAL": 33,
            "POSITION": 32,
            "TEXCOORD_0": 34
          },
          "indices": 35,
          "material": 6,
          "mode": 4
        }
      ]
    },
    {
      "name": "Object_9",
      "primitives": [
        {
          "attributes": {
            "NORMAL": 37,
            "POSITION": 36,
            "TEXCOORD_0": 38
          },
          "indices": 39,
          "material": 7,
          "mode": 4
        }
      ]
    },
    {
      "name": "Object_10",
      "primitives": [
        {
          "attributes": {
            "NORMAL": 41,
            "POSITION": 40,
            "TEXCOORD_0": 42
          },
          "indices": 43,
          "material": 8,
          "mode": 4
        }
      ]
    }
  ],
  "nodes": [
    {
      "children": [
        1
      ],
      "matrix": [
        2.220446049250313e-16,
        2.220446049250313e-16,
        -1.0,
        0.0,
        -1.0,
        4.930380657631324e-32,
        -2.220446049250313e-16,
        0.0,
        0.0,
        1.0,
        2.220446049250313e-16,
        0.0,
        0.0,
        0.0,
        0.0,
        1.0
      ],
      "name": "Sketchfab_model"
    },
    {
      "children": [
        2
      ],
      "name": "root"
    },
    {
      "children": [
        3
      ],
      "matrix": [
        1.0,
        0.0,
        0.0,
        0.0,
        0.0,
        2.220446049250313e-16,
        1.0,
        0.0,
        0.0,
        -1.0,
        2.220446049250313e-16,
        0.0,
        0.0,
        0.0,
        0.0,
        1.0
      ],
      "name": "GLTF_SceneRootNode"
    },
    {
      "children": [
        4,
        5,
        6,
        7,
        8,
        9,
        10,
        11,
        12,
        13,
        14
      ],
      "matrix": [
        -0.35621944069843064,
        0.0,
        3.708590292362832e-07,
        0.0,
        0.0,
        0.4230588674545288,
        0.0,
        0.0,
        -4.4044536307811387e-07,
        0.0,
        -0.4230588674542996,
        0.0,
        0.0,
        -0.014032363891601563,
        0.0,
        1.0
      ],
      "name": "NurbsCurve_0"
    },
    {
      "mesh": 0,
      "name": "Object_4"
    },
    {
      "mesh": 1,
      "name": "Object_5"
    },
    {
      "mesh": 2,
      "name": "Object_6"
    },
    {
      "mesh": 3,
      "name": "Object_7"
    },
    {
      "mesh": 4,
      "name": "Object_8"
    },
    {
      "mesh": 5,
      "name": "Object_9"
    },
    {
      "mesh": 6,
      "name": "Object_10"
    },
    {
      "mesh": 7,
      "name": "Object_11"
    },
    {
      "mesh": 8,
      "name": "Object_12"
    },
    {
      "mesh": 9,
      "name": "Object_13"
    },
    {
      "mesh": 10,
      "name": "Object_14"
    }
  ],
  "scene": 0,
  "scenes": [
    {
      "name": "Sketchfab_Scene",
      "nodes": [
        0
      ]
    }
  ]
}
