{
  "accessors": [
    {
      "bufferView": 2,
      "componentType": 5126,
      "count": 906,
      "max": [
        1.3632700443267822,
        0.21597599983215332,
        -0.21880300343036652
      ],
      "min": [
        -0.45442500710487366,
        -0.16475799679756165,
        -0.999770998954773
      ],
      "type": "VEC3"
    },
    {
      "bufferView": 2,
      "byteOffset": 10872,
      "componentType": 5126,
      "count": 906,
      "max": [
        1.0,
        0.9999995231628418,
        0.9999803304672241
      ],
      "min": [
        -1.0,
        -0.9999823570251465,
        -0.9998531341552734
      ],
      "type": "VEC3"
    },
    {
      "bufferView": 3,
      "componentType": 5126,
      "count": 906,
      "max": [
        1.0,
        0.982001006603241,
        0.9626880884170532,
        1.0
      ],
      "min": [
        -1.0,
        -0.9675792455673218,
        -0.9961626529693604,
        -1.0
      ],
      "type": "VEC4"
    },
    {
      "bufferView": 1,
      "componentType": 5126,
      "count": 906,
      "max": [
        0.8288710117340088,
        0.920557975769043
      ],
      "min": [
        -0.92084801197052,
        0.011520699597895145
      ],
      "type": "VEC2"
    },
    {
      "bufferView": 0,
      "componentType": 5125,
      "count": 3588,
      "type": "SCALAR"
    },
    {
      "bufferView": 2,
      "byteOffset": 21744,
      "componentType": 5126,
      "count": 56,
      "max": [
        1.3588800430297852,
        0.21120600402355194,
        0.9085720181465149
      ],
      "min": [
        -0.4500289857387543,
        0.14807499945163727,
        -0.3300809860229492
      ],
      "type": "VEC3"
    },
    {
      "bufferView": 2,
      "byteOffset": 22416,
      "componentType": 5126,
      "count": 56,
      "max": [
        1.0,
        1.0,
        0.9999992251396179
      ],
      "min": [
        -1.0,
        -1.0,
        -0.9999992251396179
      ],
      "type": "VEC3"
    },
    {
      "bufferView": 3,
      "byteOffset": 14496,
      "componentType": 5126,
      "count": 56,
      "max": [
        1.0,
        0.05431095138192177,
        6.996920274104923e-05,
        1.0
      ],
      "min": [
        -1.0,
        -1.0,
        -0.00019544608949217945,
        -1.0
      ],
      "type": "VEC4"
    },
    {
      "bufferView": 1,
      "byteOffset": 7248,
      "componentType": 5126,
      "count": 56,
      "max": [
        0.9970210194587708,
        0.7688080072402954
      ],
      "min": [
        -0.6690409779548645,
        0.011520699597895145
      ],
      "type": "VEC2"
    },
    {
      "bufferView": 0,
      "byteOffset": 14352,
      "componentType": 5125,
      "count": 84,
      "type": "SCALAR"
    },
    {
      "bufferView": 2,
      "byteOffset": 23088,
      "componentType": 5126,
      "count": 868,
      "max": [
        1.3588800430297852,
        0.2109919935464859,
        0.9964600205421448
      ],
      "min": [
        -0.4500289857387543,
        0.033476900309324265,
        0.9084910154342651
      ],
      "type": "VEC3"
    },
    {
      "bufferView": 2,
      "byteOffset": 33504,
      "componentType": 5126,
      "count": 868,
      "max": [
        1.0,
        1.0,
        1.0
      ],
      "min": [
        -1.0,
        -1.0,
        -1.0
      ],
      "type": "VEC3"
    },
    {
      "bufferView": 3,
      "byteOffset": 15392,
      "componentType": 5126,
      "count": 868,
      "max": [
        0.99996417760849,
        0.982374906539917,
        0.9963839650154114,
        1.0
      ],
      "min": [
        -0.99996417760849,
        -0.9988111853599548,
        -0.9999279379844666,
        -1.0
      ],
      "type": "VEC4"
    },
    {
      "bufferView": 1,
      "byteOffset": 7696,
      "componentType": 5126,
      "count": 868,
      "max": [
        0.8831179738044739,
        0.9766499996185303
      ],
      "min": [
        -0.995166003704071,
        0.009902389720082283
      ],
      "type": "VEC2"
    },
    {
      "bufferView": 0,
      "byteOffset": 14688,
      "componentType": 5125,
      "count": 2760,
      "type": "SCALAR"
    },
    {
      "bufferView": 2,
      "byteOffset": 43920,
      "componentType": 5126,
      "count": 5714,
      "max": [
        1.3522100448608398,
        0.2751159965991974,
        1.0
      ],
      "min": [
        -0.44335898756980896,
        -0.2755120098590851,
        0.935329020023346
      ],
      "type": "VEC3"
    },
    {
      "bufferView": 2,
      "byteOffset": 112488,
      "componentType": 5126,
      "count": 5714,
      "max": [
        0.9999884963035583,
        0.9999485015869141,
        1.0
      ],
      "min": [
        -0.9999884963035583,
        -0.9999682307243347,
        -1.0
      ],
      "type": "VEC3"
    },
    {
      "bufferView": 3,
      "byteOffset": 29280,
      "componentType": 5126,
      "count": 5714,
      "max": [
        0.999803900718689,
        1.0,
        0.9914461374282837,
        1.0
      ],
      "min": [
        -0.9998039603233337,
        -0.9942443370819092,
        -1.0,
        -1.0
      ],
      "type": "VEC4"
    },
    {
      "bufferView": 1,
      "byteOffset": 14640,
      "componentType": 5126,
      "count": 5714,
      "max": [
        0.9836660027503967,
        0.9886339902877808
      ],
      "min": [
        -0.995166003704071,
        0.011520699597895145
      ],
      "type": "VEC2"
    },
    {
      "bufferView": 0,
      "byteOffset": 25728,
      "componentType": 5125,
      "count": 20772,
      "type": "SCALAR"
    },
    {
      "bufferView": 2,
      "byteOffset": 181056,
      "componentType": 5126,
      "count": 924,
      "max": [
        1.2593799829483032,
        0.2465129941701889,
        0.9891800284385681
      ],
      "min": [
        -0.35053500533103943,
        -0.25951099395751953,
        0.9783610105514526
      ],
      "type": "VEC3"
    },
    {
      "bufferView": 2,
      "byteOffset": 192144,
      "componentType": 5126,
      "count": 924,
      "max": [
        0.9999883770942688,
        0.9999682307243347,
        1.0
      ],
      "min": [
        -0.9999883770942688,
        -0.9999791383743286,
        -1.0
      ],
      "type": "VEC3"
    },
    {
      "bufferView": 3,
      "byteOffset": 120704,
      "componentType": 5126,
      "count": 924,
      "max": [
        0.5143466591835022,
        0.9997833967208862,
        1.0,
        1.0
      ],
      "min": [
        -0.5127126574516296,
        -0.9997891783714294,
        -1.0,
        -1.0
      ],
      "type": "VEC4"
    },
    {
      "bufferView": 1,
      "byteOffset": 60352,
      "componentType": 5126,
      "count": 924,
      "max": [
        0.9541590213775635,
        0.9363359808921814
      ],
      "min": [
        -0.995166003704071,
        0.011520699597895145
      ],
      "type": "VEC2"
    },
    {
      "bufferView": 0,
      "byteOffset": 108816,
      "componentType": 5125,
      "count": 4104,
      "type": "SCALAR"
    }
  ],
  "asset": {
    "extras": {
      "author": "Robin Bad (https://sketchfab.com/u-76)",
      "license": "CC-BY-NC-ND-4.0 (http://creativecommons.org/licenses/by-nc-nd/4.0/)",
      "source": "https://sketchfab.com/3d-models/eyeglasses-subject-visualization-5b50e95fc80648bfb95f0faa27e24781",
      "title": "eyeglasses (subject visualization)"
    },
    "generator": "Sketchfab-12.66.0",
    "version": "2.0"
  },
  "bufferViews": [
    {
      "buffer": 0,
      "byteLength": 125232,
      "name": "floatBufferViews",
      "target": 34963
    },
    {
      "buffer": 0,
      "byteLength": 67744,
      "byteOffset": 125232,
      "byteStride": 8,
      "name": "floatBufferViews",
      "target": 34962
    },
    {
      "buffer": 0,
      "byteLength": 203232,
      "byteOffset": 192976,
      "byteStride": 12,
      "name": "floatBufferViews",
      "target": 34962
    },
    {
      "buffer": 0,
      "byteLength": 135488,
      "byteOffset": 396208,
      "byteStride": 16,
      "name": "floatBufferViews",
      "target": 34962
    }
  ],
  "buffers": [
    {
      "byteLength": 531696,
      "uri": "scene.bin"
    }
  ],
  "images": [
    {
      "uri": "textures/glass_baseColor.png"
    },
    {
      "uri": "textures/glass_metallicRoughness.png"
    },
    {
      "uri": "textures/glass_normal.png"
    }
  ],
  "materials": [
    {
      "alphaMode": "BLEND",
      "doubleSided": true,
      "name": "glass",
      "normalTexture": {
        "index": 2
      },
      "occlusionTexture": {
        "index": 1
      },
      "pbrMetallicRoughness": {
        "baseColorTexture": {
          "index": 0
        },
        "metallicRoughnessTexture": {
          "index": 1
        }
      }
    }
  ],
  "meshes": [
    {
      "name": "defaultMaterial",
      "primitives": [
        {
          "attributes": {
            "NORMAL": 1,
            "POSITION": 0,
            "TANGENT": 2,
            "TEXCOORD_0": 3
          },
          "indices": 4,
          "material": 0,
          "mode": 4
        }
      ]
    },
    {
      "name": "defaultMaterial",
      "primitives": [
        {
          "attributes": {
            "NORMAL": 6,
            "POSITION": 5,
            "TANGENT": 7,
            "TEXCOORD_0": 8
          },
          "indices": 9,
          "material": 0,
          "mode": 4
        }
      ]
    },
    {
      "name": "defaultMaterial",
      "primitives": [
        {
          "attributes": {
            "NORMAL": 11,
            "POSITION": 10,
            "TANGENT": 12,
            "TEXCOORD_0": 13
          },
          "indices": 14,
          "material": 0,
          "mode": 4
        }
      ]
    },
    {
      "name": "defaultMaterial",
      "primitives": [
        {
          "attributes": {
            "NORMAL": 16,
            "POSITION": 15,
            "TANGENT": 17,
            "TEXCOORD_0": 18
          },
          "indices": 19,
          "material": 0,
          "mode": 4
        }
      ]
    },
    {
      "name": "defaultMaterial",
      "primitives": [
        {
          "attributes": {
            "NORMAL": 21,
            "POSITION": 20,
            "TANGENT": 22,
            "TEXCOORD_0": 23
          },
          "indices": 24,
          "material": 0,
          "mode": 4
        }
      ]
    }
  ],
  "nodes": [
    {
      "children": [
        1
      ],
      "matrix": [
        1.0,
        0.0,
        0.0,
        0.0,
        0.0,
        2.220446049250313e-16,
        -1.0,
        0.0,
        0.0,
        1.0,
        2.220446049250313e-16,
        0.0,
        0.0,
        0.0,
        0.0,
        1.0
      ],
      "name": "Sketchfab_model"
    },
    {
      "children": [
        2,
        4,
        6,
        8,
        10
      ],
      "matrix": [
        1.0,
        0.0,
        0.0,
        0.0,
        0.0,
        -4.371139006309477e-08,
        0.999999999999999,
        0.0,
        0.0,
        -0.999999999999999,
        -4.371139006309477e-08,
        0.0,
        0.0,
        0.0,
        0.0,
        1.0
      ],
      "name": "Collada visual scene group"
    },
    {
      "children": [
        3
      ],
      "name": "A_LP"
    },
    {
      "mesh": 0,
      "name": "defaultMaterial"
    },
    {
      "children": [
        5
      ],
      "name": "B_LP"
    },
    {
      "mesh": 1,
      "name": "defaultMaterial"
    },
    {
      "children": [
        7
      ],
      "name": "C_LP"
    },
    {
      "mesh": 2,
      "name": "defaultMaterial"
    },
    {
      "children": [
        9
      ],
      "name": "D_LP"
    },
    {
      "mesh": 3,
      "name": "defaultMaterial"
    },
    {
      "children": [
        11
      ],
      "name": "GLASS_LP"
    },
    {
      "mesh": 4,
      "name": "defaultMaterial"
    }
  ],
  "samplers": [
    {
      "magFilter": 9729,
      "minFilter": 9987,
      "wrapS": 10497,
      "wrapT": 10497
    }
  ],
  "scene": 0,
  "scenes": [
    {
      "name": "Sketchfab_Scene",
      "nodes": [
        0
      ]
    }
  ],
  "textures": [
    {
      "sampler": 0,
      "source": 0
    },
    {
      "sampler": 0,
      "source": 1
    },
    {
      "sampler": 0,
      "source": 2
    }
  ]
}
