{
  "accessors": [
    {
      "bufferView": 2,
      "componentType": 5126,
      "count": 256,
      "max": [
        2.907896041870117,
        -1.4625869989395142,
        2.3665270805358887
      ],
      "min": [
        -2.9078969955444336,
        -1.641476035118103,
        0.04326999932527542
      ],
      "type": "VEC3"
    },
    {
      "bufferView": 2,
      "byteOffset": 3072,
      "componentType": 5126,
      "count": 256,
      "max": [
        0.029101110994815826,
        0.9991381168365479,
        -0.02960112877190113
      ],
      "min": [
        -0.029101110994815826,
        0.9991381168365479,
        -0.02960112877190113
      ],
      "type": "VEC3"
    },
    {
      "bufferView": 1,
      "componentType": 5126,
      "count": 256,
      "max": [
        0.0,
        0.0
      ],
      "min": [
        0.0,
        0.0
      ],
      "type": "VEC2"
    },
    {
      "bufferView": 0,
      "componentType": 5125,
      "count": 744,
      "type": "SCALAR"
    },
    {
      "bufferView": 2,
      "byteOffset": 6144,
      "componentType": 5126,
      "count": 2840,
      "max": [
        3.521008014678955,
        5.504820823669434,
        1.301131010055542
      ],
      "min": [
        -3.521008014678955,
        2.844749927520752,
        0.018272999674081802
      ],
      "type": "VEC3"
    },
    {
      "bufferView": 2,
      "byteOffset": 40224,
      "componentType": 5126,
      "count": 2840,
      "max": [
        0.9996044039726257,
        0.9763001203536987,
        0.997637927532196
      ],
      "min": [
        -0.9996044039726257,
        -0.9926838874816895,
        -0.9973246455192566
      ],
      "type": "VEC3"
    },
    {
      "bufferView": 1,
      "byteOffset": 2048,
      "componentType": 5126,
      "count": 2840,
      "max": [
        1.0,
        1.0
      ],
      "min": [
        9.999999974752427e-07,
        0.0
      ],
      "type": "VEC2"
    },
    {
      "bufferView": 0,
      "byteOffset": 2976,
      "componentType": 5125,
      "count": 16464,
      "type": "SCALAR"
    },
    {
      "bufferView": 2,
      "byteOffset": 74304,
      "componentType": 5126,
      "count": 2218,
      "max": [
        0.7048069834709167,
        -1.1094080209732056,
        1.1185029745101929
      ],
      "min": [
        -0.7048069834709167,
        -1.4213320016860962,
        0.4993549883365631
      ],
      "type": "VEC3"
    },
    {
      "bufferView": 2,
      "byteOffset": 100920,
      "componentType": 5126,
      "count": 2218,
      "max": [
        0.9998216032981873,
        0.9990267157554626,
        0.9967501163482666
      ],
      "min": [
        -0.9998216032981873,
        -0.9997581839561462,
        -0.9953528046607971
      ],
      "type": "VEC3"
    },
    {
      "bufferView": 1,
      "byteOffset": 24768,
      "componentType": 5126,
      "count": 2218,
      "max": [
        0.875,
        1.0
      ],
      "min": [
        0.125,
        0.0
      ],
      "type": "VEC2"
    },
    {
      "bufferView": 0,
      "byteOffset": 68832,
      "componentType": 5125,
      "count": 11616,
      "type": "SCALAR"
    },
    {
      "bufferView": 2,
      "byteOffset": 127536,
      "componentType": 5126,
      "count": 19407,
      "max": [
        0.6383619904518127,
        -1.5375549793243408,
        1.7854020595550537
      ],
      "min": [
        -0.6383619904518127,
        -1.806838035583496,
        1.195937991142273
      ],
      "type": "VEC3"
    },
    {
      "bufferView": 2,
      "byteOffset": 360420,
      "componentType": 5126,
      "count": 19407,
      "max": [
        0.9999969005584717,
        0.9999775886535645,
        0.9999630451202393
      ],
      "min": [
        -0.9999969005584717,
        -0.9999480247497559,
        -0.9998490214347839
      ],
      "type": "VEC3"
    },
    {
      "bufferView": 3,
      "componentType": 5126,
      "count": 19407,
      "max": [
        1.0,
        0.9998178482055664,
        0.9999284148216248,
        1.0
      ],
      "min": [
        -0.9105273485183716,
        -0.9999924302101135,
        -0.9999961256980896,
        1.0
      ],
      "type": "VEC4"
    },
    {
      "bufferView": 1,
      "byteOffset": 42512,
      "componentType": 5126,
      "count": 19407,
      "max": [
        0.9709159731864929,
        0.8783130049705505
      ],
      "min": [
        0.06921499967575073,
        0.02908400073647499
      ],
      "type": "VEC2"
    },
    {
      "bufferView": 0,
      "byteOffset": 115296,
      "componentType": 5125,
      "count": 100122,
      "type": "SCALAR"
    },
    {
      "bufferView": 2,
      "byteOffset": 593304,
      "componentType": 5126,
      "count": 6504,
      "max": [
        2.9122910499572754,
        -1.2198209762573242,
        1.7523430585861206
      ],
      "min": [
        -2.9122910499572754,
        -1.6860729455947876,
        0.7575590014457703
      ],
      "type": "VEC3"
    },
    {
      "bufferView": 2,
      "byteOffset": 671352,
      "componentType": 5126,
      "count": 6504,
      "max": [
        0.9998306632041931,
        0.9995618462562561,
        0.9999396800994873
      ],
      "min": [
        -0.9998306632041931,
        -0.9998247027397156,
        -0.9999998807907104
      ],
      "type": "VEC3"
    },
    {
      "bufferView": 1,
      "byteOffset": 197768,
      "componentType": 5126,
      "count": 6504,
      "max": [
        1.0,
        1.0
      ],
      "min": [
        0.0,
        0.0
      ],
      "type": "VEC2"
    },
    {
      "bufferView": 0,
      "byteOffset": 515784,
      "componentType": 5125,
      "count": 35385,
      "type": "SCALAR"
    },
    {
      "bufferView": 2,
      "byteOffset": 749400,
      "componentType": 5126,
      "count": 11352,
      "max": [
        3.5055959224700928,
        2.8095650672912598,
        1.5536479949951172
      ],
      "min": [
        -3.5055959224700928,
        -1.0504499673843384,
        1.0656269788742065
      ],
      "type": "VEC3"
    },
    {
      "bufferView": 2,
      "byteOffset": 885624,
      "componentType": 5126,
      "count": 11352,
      "max": [
        0.9999946355819702,
        0.9999680519104004,
        0.9999727010726929
      ],
      "min": [
        -0.9999946355819702,
        -0.9999669790267944,
        -0.9999933242797852
      ],
      "type": "VEC3"
    },
    {
      "bufferView": 1,
      "byteOffset": 249800,
      "componentType": 5126,
      "count": 11352,
      "max": [
        1.0000009536743164,
        3.053222894668579
      ],
      "min": [
        -4.287679195404053,
        -2.337414026260376
      ],
      "type": "VEC2"
    },
    {
      "bufferView": 0,
      "byteOffset": 657324,
      "componentType": 5125,
      "count": 62856,
      "type": "SCALAR"
    },
    {
      "bufferView": 2,
      "byteOffset": 1021848,
      "componentType": 5126,
      "count": 3906,
      "max": [
        3.3398990631103516,
        -1.0351179838180542,
        1.5941599607467651
      ],
      "min": [
        -3.3398990631103516,
        -1.6576930284500122,
        1.1472820043563843
      ],
      "type": "VEC3"
    },
    {
      "bufferView": 2,
      "byteOffset": 1068720,
      "componentType": 5126,
      "count": 3906,
      "max": [
        1.0,
        0.9999370574951172,
        0.9998497366905212
      ],
      "min": [
        -1.0,
        -0.9998438954353333,
        -0.9999470710754395
      ],
      "type": "VEC3"
    },
    {
      "bufferView": 1,
      "byteOffset": 340616,
      "componentType": 5126,
      "count": 3906,
      "max": [
        0.896619975566864,
        1.0017060041427612
      ],
      "min": [
        -1.5999999959603883e-05,
        -9.500000305706635e-05
      ],
      "type": "VEC2"
    },
    {
      "bufferView": 0,
      "byteOffset": 908748,
      "componentType": 5125,
      "count": 19344,
      "type": "SCALAR"
    },
    {
      "bufferView": 2,
      "byteOffset": 1115592,
      "componentType": 5126,
      "count": 7804,
      "max": [
        2.937424898147583,
        -1.454166054725647,
        2.396008014678955
      ],
      "min": [
        -2.9374260902404785,
        -1.6500780582427979,
        0.013778000138700008
      ],
      "type": "VEC3"
    },
    {
      "bufferView": 2,
      "byteOffset": 1209240,
      "componentType": 5126,
      "count": 7804,
      "max": [
        0.9999979734420776,
        0.9999645948410034,
        0.9999973773956299
      ],
      "min": [
        -0.9999978542327881,
        -0.9999029636383057,
        -0.999996542930603
      ],
      "type": "VEC3"
    },
    {
      "bufferView": 1,
      "byteOffset": 371864,
      "componentType": 5126,
      "count": 7804,
      "max": [
        0.21464399993419647,
        0.981660008430481
      ],
      "min": [
        0.03267500177025795,
        0.021856000646948814
      ],
      "type": "VEC2"
    },
    {
      "bufferView": 0,
      "byteOffset": 986124,
      "componentType": 5125,
      "count": 36864,
      "type": "SCALAR"
    },
    {
      "bufferView": 2,
      "byteOffset": 1302888,
      "componentType": 5126,
      "count": 19264,
      "max": [
        3.5051019191741943,
        2.5299079418182373,
        1.3127729892730713
      ],
      "min": [
        -3.5051019191741943,
        1.0595300197601318,
        1.163169026374817
      ],
      "type": "VEC3"
    },
    {
      "bufferView": 2,
      "byteOffset": 1534056,
      "componentType": 5126,
      "count": 19264,
      "max": [
        0.999739944934845,
        0.9948623776435852,
        0.9995618462562561
      ],
      "min": [
        -0.999739944934845,
        -0.9949142336845398,
        -0.9995618462562561
      ],
      "type": "VEC3"
    },
    {
      "bufferView": 1,
      "byteOffset": 434296,
      "componentType": 5126,
      "count": 19264,
      "max": [
        37.75,
        1.023597002029419
      ],
      "min": [
        0.1875,
        -1.0235960483551025
      ],
      "type": "VEC2"
    },
    {
      "bufferView": 0,
      "byteOffset": 1133580,
      "componentType": 5125,
      "count": 115392,
      "type": "SCALAR"
    },
    {
      "bufferView": 2,
      "byteOffset": 1765224,
      "componentType": 5126,
      "count": 29720,
      "max": [
        3.3041560649871826,
        -0.8923360109329224,
        1.4386529922485352
      ],
      "min": [
        -3.3041560649871826,
        -1.1789000034332275,
        1.2723989486694336
      ],
      "type": "VEC3"
    },
    {
      "bufferView": 2,
      "byteOffset": 2121864,
      "componentType": 5126,
      "count": 29720,
      "max": [
        1.0,
        0.9994837641716003,
        0.9999655485153198
      ],
      "min": [
        -1.0,
        -1.0,
        -0.9999713897705078
      ],
      "type": "VEC3"
    },
    {
      "bufferView": 1,
      "byteOffset": 588408,
      "componentType": 5126,
      "count": 29720,
      "max": [
        0.0,
        0.0
      ],
      "min": [
        0.0,
        0.0
      ],
      "type": "VEC2"
    },
    {
      "bufferView": 0,
      "byteOffset": 1595148,
      "componentType": 5125,
      "count": 178272,
      "type": "SCALAR"
    },
    {
      "bufferView": 2,
      "byteOffset": 2478504,
      "componentType": 5126,
      "count": 9534,
      "max": [
        3.4778339862823486,
        5.310418128967285,
        1.4599250555038452
      ],
      "min": [
        -3.477834939956665,
        -1.3944599628448486,
        0.10031700134277344
      ],
      "type": "VEC3"
    },
    {
      "bufferView": 2,
      "byteOffset": 2592912,
      "componentType": 5126,
      "count": 9534,
      "max": [
        0.9999756813049316,
        0.9998345971107483,
        0.9997832179069519
      ],
      "min": [
        -0.9999750852584839,
        -0.9998369812965393,
        -0.9997832179069519
      ],
      "type": "VEC3"
    },
    {
      "bufferView": 1,
      "byteOffset": 826168,
      "componentType": 5126,
      "count": 9534,
      "max": [
        1.0,
        1.0
      ],
      "min": [
        0.0,
        0.0
      ],
      "type": "VEC2"
    },
    {
      "bufferView": 0,
      "byteOffset": 2308236,
      "componentType": 5125,
      "count": 51672,
      "type": "SCALAR"
    }
  ],
  "asset": {
    "extras": {
      "author": "Dokono Kinokoda (https://sketchfab.com/JunkWren)",
      "license": "CC-BY-4.0 (http://creativecommons.org/licenses/by/4.0/)",
      "source": "https://sketchfab.com/3d-models/glasses-08-79436d34fb2b471e8861fa9d002b082f",
      "title": "Glasses 08"
    },
    "generator": "Sketchfab-12.67.0",
    "version": "2.0"
  },
  "bufferViews": [
    {
      "buffer": 0,
      "byteLength": 2514924,
      "name": "floatBufferViews",
      "target": 34963
    },
    {
      "buffer": 0,
      "byteLength": 902440,
      "byteOffset": 2514924,
      "byteStride": 8,
      "name": "floatBufferViews",
      "target": 34962
    },
    {
      "buffer": 0,
      "byteLength": 2707320,
      "byteOffset": 3417364,
      "byteStride": 12,
      "name": "floatBufferViews",
      "target": 34962
    },
    {
      "buffer": 0,
      "byteLength": 310512,
      "byteOffset": 6124684,
      "byteStride": 16,
      "name": "floatBufferViews",
      "target": 34962
    }
  ],
  "buffers": [
    {
      "byteLength": 6435196,
      "uri": "scene.bin"
    }
  ],
  "images": [
    {
      "uri": "textures/material_4_normal.png"
    }
  ],
  "materials": [
    {
      "alphaMode": "BLEND",
      "doubleSided": true,
      "name": "000_Glass",
      "pbrMetallicRoughness": {
        "baseColorFactor": [
          0.0,
          1.0,
          0.019708368943048015,
          0.1
        ],
        "roughnessFactor": 0.0
      }
    },
    {
      "doubleSided": true,
      "name": "material",
      "pbrMetallicRoughness": {
        "baseColorFactor": [
          0.0,
          0.0,
          0.0,
          1.0
        ],
        "metallicFactor": 0.0,
        "roughnessFactor": 0.09999999999999998
      }
    },
    {
      "alphaMode": "BLEND",
      "doubleSided": true,
      "name": "002_Nose",
      "pbrMetallicRoughness": {
        "baseColorFactor": [
          0.8,
          0.8,
          0.8,
          0.29963853370543997
        ],
        "roughnessFactor": 0.2
      }
    },
    {
      "doubleSided": true,
      "name": "material_3",
      "pbrMetallicRoughness": {
        "baseColorFactor": [
          1.0,
          0.8449085444000465,
          0.4788319434779161,
          1.0
        ],
        "roughnessFactor": 0.2
      }
    },
    {
      "doubleSided": true,
      "name": "material_4",
      "normalTexture": {
        "index": 0
      },
      "pbrMetallicRoughness": {
        "baseColorFactor": [
          1.0,
          0.846873231509858,
          0.4793201831008268,
          1.0
        ],
        "roughnessFactor": 0.2
      }
    }
  ],
  "meshes": [
    {
      "name": "Object_0",
      "primitives": [
        {
          "attributes": {
            "NORMAL": 1,
            "POSITION": 0,
            "TEXCOORD_0": 2
          },
          "indices": 3,
          "material": 0,
          "mode": 4
        }
      ]
    },
    {
      "name": "Object_1",
      "primitives": [
        {
          "attributes": {
            "NORMAL": 5,
            "POSITION": 4,
            "TEXCOORD_0": 6
          },
          "indices": 7,
          "material": 1,
          "mode": 4
        }
      ]
    },
    {
      "name": "Object_2",
      "primitives": [
        {
          "attributes": {
            "NORMAL": 9,
            "POSITION": 8,
            "TEXCOORD_0": 10
          },
          "indices": 11,
          "material": 2,
          "mode": 4
        }
      ]
    },
    {
      "name": "Object_3",
      "primitives": [
        {
          "attributes": {
            "NORMAL": 13,
            "POSITION": 12,
            "TANGENT": 14,
            "TEXCOORD_0": 15
          },
          "indices": 16,
          "material": 4,
          "mode": 4
        }
      ]
    },
    {
      "name": "Object_4",
      "primitives": [
        {
          "attributes": {
            "NORMAL": 18,
            "POSITION": 17,
            "TEXCOORD_0": 19
          },
          "indices": 20,
          "material": 3,
          "mode": 4
        }
      ]
    },
    {
      "name": "Object_5",
      "primitives": [
        {
          "attributes": {
            "NORMAL": 22,
            "POSITION": 21,
            "TEXCOORD_0": 23
          },
          "indices": 24,
          "material": 3,
          "mode": 4
        }
      ]
    },
    {
      "name": "Object_6",
      "primitives": [
        {
          "attributes": {
            "NORMAL": 26,
            "POSITION": 25,
            "TEXCOORD_0": 27
          },
          "indices": 28,
          "material": 3,
          "mode": 4
        }
      ]
    },
    {
      "name": "Object_7",
      "primitives": [
        {
          "attributes": {
            "NORMAL": 30,
            "POSITION": 29,
            "TEXCOORD_0": 31
          },
          "indices": 32,
          "material": 3,
          "mode": 4
        }
      ]
    },
    {
      "name": "Object_8",
      "primitives": [
        {
          "attributes": {
            "NORMAL": 34,
            "POSITION": 33,
            "TEXCOORD_0": 35
          },
          "indices": 36,
          "material": 3,
          "mode": 4
        }
      ]
    },
    {
      "name": "Object_9",
      "primitives": [
        {
          "attributes": {
            "NORMAL": 38,
            "POSITION": 37,
            "TEXCOORD_0": 39
          },
          "indices": 40,
          "material": 3,
          "mode": 4
        }
      ]
    },
    {
      "name": "Object_10",
      "primitives": [
        {
          "attributes": {
            "NORMAL": 42,
            "POSITION": 41,
            "TEXCOORD_0": 43
          },
          "indices": 44,
          "material": 3,
          "mode": 4
        }
      ]
    }
  ],
  "nodes": [
    {
      "children": [
        1
      ],
      "matrix": [
        1.0,
        0.0,
        0.0,
        0.0,
        0.0,
        2.220446049250313e-16,
        -1.0,
        0.0,
        0.0,
        1.0,
        2.220446049250313e-16,
        0.0,
        0.0,
        0.0,
        0.0,
        1.0
      ],
      "name": "Sketchfab_model"
    },
    {
      "children": [
        2,
        3,
        4,
        5,
        6,
        7,
        8,
        9,
        10,
        11,
        12
      ],
      "name": "DK0516002.obj.cleaner.materialmerger.gles"
    },
    {
      "mesh": 0,
      "name": "Object_2"
    },
    {
      "mesh": 1,
      "name": "Object_3"
    },
    {
      "mesh": 2,
      "name": "Object_4"
    },
    {
      "mesh": 3,
      "name": "Object_5"
    },
    {
      "mesh": 4,
      "name": "Object_6"
    },
    {
      "mesh": 5,
      "name": "Object_7"
    },
    {
      "mesh": 6,
      "name": "Object_8"
    },
    {
      "mesh": 7,
      "name": "Object_9"
    },
    {
      "mesh": 8,
      "name": "Object_10"
    },
    {
      "mesh": 9,
      "name": "Object_11"
    },
    {
      "mesh": 10,
      "name": "Object_12"
    }
  ],
  "samplers": [
    {
      "magFilter": 9729,
      "minFilter": 9987,
      "wrapS": 10497,
      "wrapT": 10497
    }
  ],
  "scene": 0,
  "scenes": [
    {
      "name": "Sketchfab_Scene",
      "nodes": [
        0
      ]
    }
  ],
  "textures": [
    {
      "sampler": 0,
      "source": 0
    }
  ]
}
