{
  "accessors": [
    {
      "bufferView": 2,
      "componentType": 5126,
      "count": 61872,
      "max": [
        0.06795767694711685,
        0.008700448088347912,
        0.007054997142404318
      ],
      "min": [
        -0.06795767694711685,
        -0.001809914130717516,
        -0.03569634631276131
      ],
      "type": "VEC3"
    },
    {
      "bufferView": 2,
      "byteOffset": 742464,
      "componentType": 5126,
      "count": 61872,
      "max": [
        0.9999988079071045,
        1.0,
        1.0
      ],
      "min": [
        -0.9999987483024597,
        -1.0,
        -1.0
      ],
      "type": "VEC3"
    },
    {
      "bufferView": 3,
      "componentType": 5126,
      "count": 61872,
      "max": [
        1.0,
        0.9999924898147583,
        1.0,
        1.0
      ],
      "min": [
        -1.0,
        -0.9999923706054688,
        -1.0,
        -1.0
      ],
      "type": "VEC4"
    },
    {
      "bufferView": 1,
      "componentType": 5126,
      "count": 61872,
      "max": [
        0.9881154298782349,
        0.6420081257820129
      ],
      "min": [
        0.003914914559572935,
        0.006181467790156603
      ],
      "type": "VEC2"
    },
    {
      "bufferView": 1,
      "byteOffset": 494976,
      "componentType": 5126,
      "count": 61872,
      "max": [
        0.9881154298782349,
        0.6420081257820129
      ],
      "min": [
        0.003914914559572935,
        0.006181467790156603
      ],
      "type": "VEC2"
    },
    {
      "bufferView": 1,
      "byteOffset": 989952,
      "componentType": 5126,
      "count": 61872,
      "max": [
        0.9881154298782349,
        0.6420081257820129
      ],
      "min": [
        0.003914914559572935,
        0.006181467790156603
      ],
      "type": "VEC2"
    },
    {
      "bufferView": 0,
      "componentType": 5125,
      "count": 290352,
      "type": "SCALAR"
    },
    {
      "bufferView": 2,
      "byteOffset": 1484928,
      "componentType": 5126,
      "count": 2385,
      "max": [
        0.002990325912833214,
        0.13421756029129028,
        0.0016510116402059793
      ],
      "min": [
        -0.0077135441824793816,
        -0.0009303784463554621,
        -0.010364043526351452
      ],
      "type": "VEC3"
    },
    {
      "bufferView": 2,
      "byteOffset": 1513548,
      "componentType": 5126,
      "count": 2385,
      "max": [
        1.0,
        1.0,
        1.0
      ],
      "min": [
        -1.0,
        -1.0,
        -1.0
      ],
      "type": "VEC3"
    },
    {
      "bufferView": 3,
      "byteOffset": 989952,
      "componentType": 5126,
      "count": 2385,
      "max": [
        0.9999990463256836,
        1.0,
        0.9987354278564453,
        1.0
      ],
      "min": [
        -0.999955415725708,
        -0.9999998211860657,
        -0.9979441165924072,
        -1.0
      ],
      "type": "VEC4"
    },
    {
      "bufferView": 1,
      "byteOffset": 1484928,
      "componentType": 5126,
      "count": 2385,
      "max": [
        0.9936206936836243,
        0.9922696352005005
      ],
      "min": [
        0.016103580594062805,
        0.6603777408599854
      ],
      "type": "VEC2"
    },
    {
      "bufferView": 1,
      "byteOffset": 1504008,
      "componentType": 5126,
      "count": 2385,
      "max": [
        0.9936206936836243,
        0.9922696352005005
      ],
      "min": [
        0.016103580594062805,
        0.6603777408599854
      ],
      "type": "VEC2"
    },
    {
      "bufferView": 1,
      "byteOffset": 1523088,
      "componentType": 5126,
      "count": 2385,
      "max": [
        0.9936206936836243,
        0.9922696352005005
      ],
      "min": [
        0.016103580594062805,
        0.6603777408599854
      ],
      "type": "VEC2"
    },
    {
      "bufferView": 0,
      "byteOffset": 1161408,
      "componentType": 5125,
      "count": 12588,
      "type": "SCALAR"
    },
    {
      "bufferView": 2,
      "byteOffset": 1542168,
      "componentType": 5126,
      "count": 6916,
      "max": [
        0.09804241359233856,
        -0.001899220049381256,
        0.020298736169934273
      ],
      "min": [
        -0.025006912648677826,
        -0.00408542063087225,
        -0.020054884254932404
      ],
      "type": "VEC3"
    },
    {
      "bufferView": 2,
      "byteOffset": 1625160,
      "componentType": 5126,
      "count": 6916,
      "max": [
        0.9878692030906677,
        0.9999998807907104,
        0.9531003832817078
      ],
      "min": [
        -0.9878688454627991,
        -0.9999998807907104,
        -0.9119952321052551
      ],
      "type": "VEC3"
    },
    {
      "bufferView": 1,
      "byteOffset": 1542168,
      "componentType": 5126,
      "count": 6916,
      "max": [
        1.9694827795028687,
        0.9063538312911987
      ],
      "min": [
        1.0192383527755737,
        0.1309373676776886
      ],
      "type": "VEC2"
    },
    {
      "bufferView": 0,
      "byteOffset": 1211760,
      "componentType": 5125,
      "count": 39936,
      "type": "SCALAR"
    },
    {
      "bufferView": 2,
      "byteOffset": 1708152,
      "componentType": 5126,
      "count": 2385,
      "max": [
        0.007813114672899246,
        0.08367826789617538,
        0.003101021982729435
      ],
      "min": [
        -0.002890755655243993,
        -0.05146966874599457,
        -0.008914032950997353
      ],
      "type": "VEC3"
    },
    {
      "bufferView": 2,
      "byteOffset": 1736772,
      "componentType": 5126,
      "count": 2385,
      "max": [
        1.0,
        1.0,
        1.0
      ],
      "min": [
        -1.0,
        -1.0,
        -1.0
      ],
      "type": "VEC3"
    },
    {
      "bufferView": 3,
      "byteOffset": 1028112,
      "componentType": 5126,
      "count": 2385,
      "max": [
        0.9999998211860657,
        1.0,
        0.9987354278564453,
        1.0
      ],
      "min": [
        -0.9999964833259583,
        -0.9999998807907104,
        -0.9979441165924072,
        -1.0
      ],
      "type": "VEC4"
    },
    {
      "bufferView": 1,
      "byteOffset": 1597496,
      "componentType": 5126,
      "count": 2385,
      "max": [
        0.9936206936836243,
        0.9922696352005005
      ],
      "min": [
        0.016103580594062805,
        0.6603777408599854
      ],
      "type": "VEC2"
    },
    {
      "bufferView": 1,
      "byteOffset": 1616576,
      "componentType": 5126,
      "count": 2385,
      "max": [
        0.9936206936836243,
        0.9922696352005005
      ],
      "min": [
        0.016103580594062805,
        0.6603777408599854
      ],
      "type": "VEC2"
    },
    {
      "bufferView": 1,
      "byteOffset": 1635656,
      "componentType": 5126,
      "count": 2385,
      "max": [
        0.9936206936836243,
        0.9922696352005005
      ],
      "min": [
        0.016103580594062805,
        0.6603777408599854
      ],
      "type": "VEC2"
    },
    {
      "bufferView": 0,
      "byteOffset": 1371504,
      "componentType": 5125,
      "count": 12588,
      "type": "SCALAR"
    }
  ],
  "asset": {
    "extras": {
      "author": "yanix (https://sketchfab.com/yanix)",
      "license": "CC-BY-4.0 (http://creativecommons.org/licenses/by/4.0/)",
      "source": "https://sketchfab.com/3d-models/glasses-2a39a445c6b84ce89974ec2d0ae67061",
      "title": "Glasses"
    },
    "generator": "Sketchfab-15.91.0",
    "version": "2.0"
  },
  "bufferViews": [
    {
      "buffer": 0,
      "byteLength": 1421856,
      "name": "floatBufferViews",
      "target": 34963
    },
    {
      "buffer": 0,
      "byteLength": 1654736,
      "byteOffset": 1421856,
      "byteStride": 8,
      "name": "floatBufferViews",
      "target": 34962
    },
    {
      "buffer": 0,
      "byteLength": 1765392,
      "byteOffset": 3076592,
      "byteStride": 12,
      "name": "floatBufferViews",
      "target": 34962
    },
    {
      "buffer": 0,
      "byteLength": 1066272,
      "byteOffset": 4841984,
      "byteStride": 16,
      "name": "floatBufferViews",
      "target": 34962
    }
  ],
  "buffers": [
    {
      "byteLength": 5908256,
      "uri": "scene.bin"
    }
  ],
  "extensionsUsed": [
    "KHR_materials_transmission",
    "KHR_materials_specular"
  ],
  "images": [
    {
      "uri": "textures/glasses_mat_baseColor.png"
    },
    {
      "uri": "textures/glasses_mat_metallicRoughness.png"
    },
    {
      "uri": "textures/glasses_mat_normal.png"
    },
    {
      "uri": "textures/glasses_mat_transmission.png"
    },
    {
      "uri": "textures/glass_mat_metallicRoughness.png"
    }
  ],
  "materials": [
    {
      "alphaMode": "BLEND",
      "doubleSided": true,
      "extensions": {
        "KHR_materials_specular": {
          "specularColorFactor": [
            1.0,
            1.0,
            1.0
          ],
          "specularFactor": 0.6689544196706123
        },
        "KHR_materials_transmission": {
          "transmissionFactor": 1.0,
          "transmissionTexture": {
            "index": 3
          }
        }
      },
      "name": "glasses_mat",
      "normalTexture": {
        "index": 2
      },
      "pbrMetallicRoughness": {
        "baseColorTexture": {
          "index": 0
        },
        "metallicRoughnessTexture": {
          "index": 1
        }
      }
    },
    {
      "alphaMode": "BLEND",
      "doubleSided": true,
      "extensions": {
        "KHR_materials_specular": {
          "specularColorFactor": [
            1.0,
            1.0,
            1.0
          ],
          "specularFactor": 0.9127646865209493
        },
        "KHR_materials_transmission": {
          "transmissionFactor": 1.0
        }
      },
      "name": "glass_mat",
      "pbrMetallicRoughness": {
        "baseColorFactor": [
          0.8,
          0.8,
          0.8,
          0.25
        ],
        "metallicFactor": 0.0,
        "metallicRoughnessTexture": {
          "index": 4
        },
        "roughnessFactor": 0.4860967195328595
      }
    }
  ],
  "meshes": [
    {
      "name": "Plane_glasses_mat_0",
      "primitives": [
        {
          "attributes": {
            "NORMAL": 1,
            "POSITION": 0,
            "TANGENT": 2,
            "TEXCOORD_0": 3,
            "TEXCOORD_1": 4,
            "TEXCOORD_2": 5
          },
          "indices": 6,
          "material": 0,
          "mode": 4
        }
      ]
    },
    {
      "name": "Plane.002_glasses_mat_0",
      "primitives": [
        {
          "attributes": {
            "NORMAL": 8,
            "POSITION": 7,
            "TANGENT": 9,
            "TEXCOORD_0": 10,
            "TEXCOORD_1": 11,
            "TEXCOORD_2": 12
          },
          "indices": 13,
          "material": 0,
          "mode": 4
        }
      ]
    },
    {
      "name": "Cube.002_glass_mat_0",
      "primitives": [
        {
          "attributes": {
            "NORMAL": 15,
            "POSITION": 14,
            "TEXCOORD_0": 16
          },
          "indices": 17,
          "material": 1,
          "mode": 4
        }
      ]
    },
    {
      "name": "Plane.001_glasses_mat_0",
      "primitives": [
        {
          "attributes": {
            "NORMAL": 19,
            "POSITION": 18,
            "TANGENT": 20,
            "TEXCOORD_0": 21,
            "TEXCOORD_1": 22,
            "TEXCOORD_2": 23
          },
          "indices": 24,
          "material": 0,
          "mode": 4
        }
      ]
    }
  ],
  "nodes": [
    {
      "children": [
        1
      ],
      "matrix": [
        1.0,
        0.0,
        0.0,
        0.0,
        0.0,
        2.220446049250313e-16,
        -1.0,
        0.0,
        0.0,
        1.0,
        2.220446049250313e-16,
        0.0,
        0.0,
        0.0,
        0.0,
        1.0
      ],
      "name": "Sketchfab_model"
    },
    {
      "children": [
        2
      ],
      "matrix": [
        0.009999999776482582,
        0.0,
        0.0,
        0.0,
        0.0,
        0.0,
        0.009999999776482582,
        0.0,
        0.0,
        -0.009999999776482582,
        0.0,
        0.0,
        0.0,
        0.0,
        0.0,
        1.0
      ],
      "name": "glasses.fbx"
    },
    {
      "children": [
        3
      ],
      "name": "RootNode"
    },
    {
      "children": [
        4,
        5,
        7,
        9
      ],
      "matrix": [
        100.0,
        0.0,
        0.0,
        0.0,
        0.0,
        -1.629206793918314e-05,
        -99.99999999999868,
        0.0,
        0.0,
        99.99999999999868,
        -1.629206793918314e-05,
        0.0,
        1.88217137154481e-15,
        3.7354047298431396,
        6.3222198486328125,
        1.0
      ],
      "name": "Plane"
    },
    {
      "mesh": 0,
      "name": "Plane_glasses_mat_0"
    },
    {
      "children": [
        6
      ],
      "matrix": [
        1.0,
        0.0,
        0.0,
        0.0,
        0.0,
        1.0,
        -2.646977960169688e-23,
        0.0,
        0.0,
        2.646977960169688e-23,
        1.0,
        0.0,
        0.06547477841377258,
        0.00582856684923172,
        0.0020676329731941223,
        1.0
      ],
      "name": "Plane.002"
    },
    {
      "mesh": 1,
      "name": "Plane.002_glasses_mat_0"
    },
    {
      "children": [
        8
      ],
      "matrix": [
        1.0,
        0.0,
        0.0,
        0.0,
        0.0,
        1.0,
        -2.646977960169688e-23,
        0.0,
        0.0,
        2.646977960169688e-23,
        1.0,
        0.0,
        -0.03651775047183037,
        0.0020294077694416046,
        -0.014320522546768188,
        1.0
      ],
      "name": "Cube.002"
    },
    {
      "mesh": 2,
      "name": "Cube.002_glass_mat_0"
    },
    {
      "children": [
        10
      ],
      "matrix": [
        1.0,
        0.0,
        0.0,
        0.0,
        0.0,
        1.0,
        -2.646977960169688e-23,
        0.0,
        0.0,
        2.646977960169688e-23,
        1.0,
        0.0,
        -0.06557434797286987,
        0.05636785551905632,
        0.0006176233291625977,
        1.0
      ],
      "name": "Plane.001"
    },
    {
      "mesh": 3,
      "name": "Plane.001_glasses_mat_0"
    }
  ],
  "samplers": [
    {
      "magFilter": 9729,
      "minFilter": 9987,
      "wrapS": 10497,
      "wrapT": 10497
    }
  ],
  "scene": 0,
  "scenes": [
    {
      "name": "Sketchfab_Scene",
      "nodes": [
        0
      ]
    }
  ],
  "textures": [
    {
      "sampler": 0,
      "source": 0
    },
    {
      "sampler": 0,
      "source": 1
    },
    {
      "sampler": 0,
      "source": 2
    },
    {
      "sampler": 0,
      "source": 3
    },
    {
      "sampler": 0,
      "source": 4
    }
  ]
}
