{
  "accessors": [
    {
      "bufferView": 2,
      "componentType": 5126,
      "count": 1336,
      "max": [
        2.3604331016540527,
        0.9003018140792847,
        0.0220101960003376
      ],
      "min": [
        -2.3604352474212646,
        -0.8965349197387695,
        -0.021546214818954468
      ],
      "type": "VEC3"
    },
    {
      "bufferView": 2,
      "byteOffset": 16032,
      "componentType": 5126,
      "count": 1336,
      "max": [
        0.04314763844013214,
        0.045207180082798004,
        0.9999991655349731
      ],
      "min": [
        -0.04314747825264931,
        -0.047119759023189545,
        -0.9999985694885254
      ],
      "type": "VEC3"
    },
    {
      "bufferView": 3,
      "componentType": 5126,
      "count": 1336,
      "max": [
        0.9999975562095642,
        0.9999533295631409,
        0.042255349457263947,
        1.0
      ],
      "min": [
        -0.9998617172241211,
        -0.9999516010284424,
        -0.04337454214692116,
        1.0
      ],
      "type": "VEC4"
    },
    {
      "bufferView": 1,
      "componentType": 5126,
      "count": 1336,
      "max": [
        0.998046875,
        0.998046875
      ],
      "min": [
        0.001953125,
        0.023717761039733887
      ],
      "type": "VEC2"
    },
    {
      "bufferView": 0,
      "componentType": 5125,
      "count": 3984,
      "type": "SCALAR"
    },
    {
      "bufferView": 2,
      "byteOffset": 32064,
      "componentType": 5126,
      "count": 4011,
      "max": [
        2.4085350036621094,
        0.9480621814727783,
        0.04397589713335037
      ],
      "min": [
        -2.4085350036621094,
        -0.9480621814727783,
        -0.04397589713335037
      ],
      "type": "VEC3"
    },
    {
      "bufferView": 2,
      "byteOffset": 80196,
      "componentType": 5126,
      "count": 4011,
      "max": [
        0.9998819828033447,
        0.9997555613517761,
        0.9999942183494568
      ],
      "min": [
        -0.9998817443847656,
        -0.9998739361763,
        -0.9999875426292419
      ],
      "type": "VEC3"
    },
    {
      "bufferView": 3,
      "byteOffset": 21376,
      "componentType": 5126,
      "count": 4011,
      "max": [
        0.9999969005584717,
        0.9999538064002991,
        0.8647254705429077,
        1.0
      ],
      "min": [
        -0.9999852180480957,
        -0.999895453453064,
        -0.840418815612793,
        1.0
      ],
      "type": "VEC4"
    },
    {
      "bufferView": 1,
      "byteOffset": 10688,
      "componentType": 5126,
      "count": 4011,
      "max": [
        0.998046875,
        0.998046875
      ],
      "min": [
        0.001953125,
        0.002816319465637207
      ],
      "type": "VEC2"
    },
    {
      "bufferView": 0,
      "byteOffset": 15936,
      "componentType": 5125,
      "count": 21912,
      "type": "SCALAR"
    },
    {
      "bufferView": 2,
      "byteOffset": 128328,
      "componentType": 5126,
      "count": 4100,
      "max": [
        0.5665861368179321,
        0.19824987649917603,
        -0.01921084150671959
      ],
      "min": [
        -0.5665861368179321,
        -0.3884536623954773,
        -0.46103987097740173
      ],
      "type": "VEC3"
    },
    {
      "bufferView": 2,
      "byteOffset": 177528,
      "componentType": 5126,
      "count": 4100,
      "max": [
        0.9972828030586243,
        0.9995538592338562,
        0.9989182353019714
      ],
      "min": [
        -0.9972827434539795,
        -0.9995988011360168,
        -0.9995978474617004
      ],
      "type": "VEC3"
    },
    {
      "bufferView": 3,
      "byteOffset": 85552,
      "componentType": 5126,
      "count": 4100,
      "max": [
        0.993492603302002,
        0.9999799132347107,
        0.9957807064056396,
        1.0
      ],
      "min": [
        -0.978925883769989,
        -0.9977033734321594,
        -0.9942724108695984,
        -1.0
      ],
      "type": "VEC4"
    },
    {
      "bufferView": 1,
      "byteOffset": 42776,
      "componentType": 5126,
      "count": 4100,
      "max": [
        0.998046875,
        0.998046875
      ],
      "min": [
        0.011393547058105469,
        0.0019530653953552246
      ],
      "type": "VEC2"
    },
    {
      "bufferView": 0,
      "byteOffset": 103584,
      "componentType": 5125,
      "count": 19920,
      "type": "SCALAR"
    },
    {
      "bufferView": 2,
      "byteOffset": 226728,
      "componentType": 5126,
      "count": 4066,
      "max": [
        2.6635494232177734,
        0.5370122790336609,
        -0.25261834263801575
      ],
      "min": [
        -2.6635494232177734,
        -0.623485803604126,
        -5.018354415893555
      ],
      "type": "VEC3"
    },
    {
      "bufferView": 2,
      "byteOffset": 275520,
      "componentType": 5126,
      "count": 4066,
      "max": [
        0.999980092048645,
        0.9999051094055176,
        0.998588502407074
      ],
      "min": [
        -0.9999798536300659,
        -0.9998238682746887,
        -0.9841595888137817
      ],
      "type": "VEC3"
    },
    {
      "bufferView": 3,
      "byteOffset": 151152,
      "componentType": 5126,
      "count": 4066,
      "max": [
        0.9989149570465088,
        0.9995198845863342,
        0.9993971586227417,
        1.0
      ],
      "min": [
        -0.9960570931434631,
        -0.9970951080322266,
        -0.4880586564540863,
        1.0
      ],
      "type": "VEC4"
    },
    {
      "bufferView": 1,
      "byteOffset": 75576,
      "componentType": 5126,
      "count": 4066,
      "max": [
        0.998046875,
        0.998046875
      ],
      "min": [
        0.001953125,
        0.011452734470367432
      ],
      "type": "VEC2"
    },
    {
      "bufferView": 0,
      "byteOffset": 183264,
      "componentType": 5125,
      "count": 23160,
      "type": "SCALAR"
    },
    {
      "bufferView": 2,
      "byteOffset": 324312,
      "componentType": 5126,
      "count": 812,
      "max": [
        2.6212821006774902,
        0.5311732888221741,
        0.05346652492880821
      ],
      "min": [
        -2.6212821006774902,
        0.4296943247318268,
        -0.2752991318702698
      ],
      "type": "VEC3"
    },
    {
      "bufferView": 2,
      "byteOffset": 334056,
      "componentType": 5126,
      "count": 812,
      "max": [
        0.9985790252685547,
        0.9999991059303284,
        0.9931620359420776
      ],
      "min": [
        -0.9985790252685547,
        -0.9999571442604065,
        -0.999461829662323
      ],
      "type": "VEC3"
    },
    {
      "bufferView": 3,
      "byteOffset": 216208,
      "componentType": 5126,
      "count": 812,
      "max": [
        0.9989742040634155,
        0.9995185732841492,
        0.9946288466453552,
        1.0
      ],
      "min": [
        -0.9990500807762146,
        -0.9997333288192749,
        -0.951808512210846,
        1.0
      ],
      "type": "VEC4"
    },
    {
      "bufferView": 1,
      "byteOffset": 108104,
      "componentType": 5126,
      "count": 812,
      "max": [
        0.998046875,
        0.9980468153953552
      ],
      "min": [
        0.0019530653953552246,
        0.23674631118774414
      ],
      "type": "VEC2"
    },
    {
      "bufferView": 0,
      "byteOffset": 275904,
      "componentType": 5125,
      "count": 4512,
      "type": "SCALAR"
    },
    {
      "bufferView": 2,
      "byteOffset": 343800,
      "componentType": 5126,
      "count": 2425,
      "max": [
        0.43476101756095886,
        0.6236732602119446,
        0.13569384813308716
      ],
      "min": [
        -0.43476101756095886,
        0.03938084468245506,
        -0.19286493957042694
      ],
      "type": "VEC3"
    },
    {
      "bufferView": 2,
      "byteOffset": 372900,
      "componentType": 5126,
      "count": 2425,
      "max": [
        0.9999970197677612,
        0.9840751886367798,
        0.9999756813049316
      ],
      "min": [
        -0.9999970197677612,
        -0.9482294321060181,
        -0.999989926815033
      ],
      "type": "VEC3"
    },
    {
      "bufferView": 3,
      "byteOffset": 229200,
      "componentType": 5126,
      "count": 2425,
      "max": [
        0.999845564365387,
        0.999657928943634,
        0.9958975911140442,
        1.0
      ],
      "min": [
        -0.990354597568512,
        -0.9991418719291687,
        -0.9998621940612793,
        1.0
      ],
      "type": "VEC4"
    },
    {
      "bufferView": 1,
      "byteOffset": 114600,
      "componentType": 5126,
      "count": 2425,
      "max": [
        0.998046875,
        0.998046875
      ],
      "min": [
        0.02800619602203369,
        0.001953125
      ],
      "type": "VEC2"
    },
    {
      "bufferView": 0,
      "byteOffset": 293952,
      "componentType": 5125,
      "count": 11826,
      "type": "SCALAR"
    }
  ],
  "asset": {
    "extras": {
      "author": "Viky (https://sketchfab.com/VikyStefiniv)",
      "license": "CC-BY-4.0 (http://creativecommons.org/licenses/by/4.0/)",
      "source": "https://sketchfab.com/3d-models/glasses-moscot-zev-tt-se-20e76258ad1542bcae86d2daa6c27c57",
      "title": "GLASSES - MOSCOT ZEV-TT SE"
    },
    "generator": "Sketchfab-14.10.0",
    "version": "2.0"
  },
  "bufferViews": [
    {
      "buffer": 0,
      "byteLength": 341256,
      "name": "floatBufferViews",
      "target": 34963
    },
    {
      "buffer": 0,
      "byteLength": 134000,
      "byteOffset": 341256,
      "byteStride": 8,
      "name": "floatBufferViews",
      "target": 34962
    },
    {
      "buffer": 0,
      "byteLength": 402000,
      "byteOffset": 475256,
      "byteStride": 12,
      "name": "floatBufferViews",
      "target": 34962
    },
    {
      "buffer": 0,
      "byteLength": 268000,
      "byteOffset": 877256,
      "byteStride": 16,
      "name": "floatBufferViews",
      "target": 34962
    }
  ],
  "buffers": [
    {
      "byteLength": 1145256,
      "uri": "scene.bin"
    }
  ],
  "extensionsUsed": [
    "KHR_materials_transmission"
  ],
  "images": [
    {
      "uri": "textures/MOSCOT_ZEV_TT_SE_baseColor.png"
    },
    {
      "uri": "textures/MOSCOT_ZEV_TT_SE_metallicRoughness.png"
    },
    {
      "uri": "textures/MOSCOT_ZEV_TT_SE_normal.png"
    },
    {
      "uri": "textures/MOSCOT_ZEV_TT_SE_transmission.png"
    },
    {
      "uri": "textures/Rims_baseColor.jpeg"
    },
    {
      "uri": "textures/Rims_metallicRoughness.png"
    },
    {
      "uri": "textures/Rims_normal.png"
    },
    {
      "uri": "textures/NosePars_baseColor.png"
    },
    {
      "uri": "textures/NosePars_metallicRoughness.png"
    },
    {
      "uri": "textures/NosePars_normal.png"
    },
    {
      "uri": "textures/Temples_baseColor.jpeg"
    },
    {
      "uri": "textures/Temples_metallicRoughness.png"
    },
    {
      "uri": "textures/Temples_normal.png"
    },
    {
      "uri": "textures/EndPieces_baseColor.jpeg"
    },
    {
      "uri": "textures/EndPieces_metallicRoughness.png"
    },
    {
      "uri": "textures/EndPieces_normal.png"
    },
    {
      "uri": "textures/Bridge_baseColor.jpeg"
    },
    {
      "uri": "textures/Bridge_metallicRoughness.png"
    },
    {
      "uri": "textures/Bridge_normal.png"
    }
  ],
  "materials": [
    {
      "alphaMode": "BLEND",
      "doubleSided": true,
      "extensions": {
        "KHR_materials_transmission": {
          "transmissionFactor": 1.0,
          "transmissionTexture": {
            "index": 3
          }
        }
      },
      "name": "MOSCOT_ZEV_TT_SE",
      "normalTexture": {
        "index": 2
      },
      "pbrMetallicRoughness": {
        "baseColorFactor": [
          0.979986380953846,
          0.979986380953846,
          0.979986380953846,
          1.0
        ],
        "baseColorTexture": {
          "index": 0
        },
        "metallicRoughnessTexture": {
          "index": 1
        }
      }
    },
    {
      "doubleSided": true,
      "name": "Rims",
      "normalTexture": {
        "index": 6
      },
      "pbrMetallicRoughness": {
        "baseColorTexture": {
          "index": 4
        },
        "metallicRoughnessTexture": {
          "index": 5
        }
      }
    },
    {
      "alphaMode": "BLEND",
      "doubleSided": true,
      "name": "NosePars",
      "normalTexture": {
        "index": 9
      },
      "pbrMetallicRoughness": {
        "baseColorTexture": {
          "index": 7
        },
        "metallicRoughnessTexture": {
          "index": 8
        }
      }
    },
    {
      "doubleSided": true,
      "name": "Temples",
      "normalTexture": {
        "index": 12
      },
      "pbrMetallicRoughness": {
        "baseColorTexture": {
          "index": 10
        },
        "metallicRoughnessTexture": {
          "index": 11
        }
      }
    },
    {
      "doubleSided": true,
      "name": "EndPieces",
      "normalTexture": {
        "index": 15
      },
      "pbrMetallicRoughness": {
        "baseColorTexture": {
          "index": 13
        },
        "metallicRoughnessTexture": {
          "index": 14
        }
      }
    },
    {
      "doubleSided": true,
      "name": "Bridge",
      "normalTexture": {
        "index": 18
      },
      "pbrMetallicRoughness": {
        "baseColorTexture": {
          "index": 16
        },
        "metallicRoughnessTexture": {
          "index": 17
        }
      }
    }
  ],
  "meshes": [
    {
      "name": "MOSCOT_ZEV_TT_SE_MOSCOT_ZEV_TT_SE_0",
      "primitives": [
        {
          "attributes": {
            "NORMAL": 1,
            "POSITION": 0,
            "TANGENT": 2,
            "TEXCOORD_0": 3
          },
          "indices": 4,
          "material": 0,
          "mode": 4
        }
      ]
    },
    {
      "name": "Rims_Rims_0",
      "primitives": [
        {
          "attributes": {
            "NORMAL": 6,
            "POSITION": 5,
            "TANGENT": 7,
            "TEXCOORD_0": 8
          },
          "indices": 9,
          "material": 1,
          "mode": 4
        }
      ]
    },
    {
      "name": "NosePars_NosePars_0",
      "primitives": [
        {
          "attributes": {
            "NORMAL": 11,
            "POSITION": 10,
            "TANGENT": 12,
            "TEXCOORD_0": 13
          },
          "indices": 14,
          "material": 2,
          "mode": 4
        }
      ]
    },
    {
      "name": "Temples_Temples_0",
      "primitives": [
        {
          "attributes": {
            "NORMAL": 16,
            "POSITION": 15,
            "TANGENT": 17,
            "TEXCOORD_0": 18
          },
          "indices": 19,
          "material": 3,
          "mode": 4
        }
      ]
    },
    {
      "name": "EndPieces_EndPieces_0",
      "primitives": [
        {
          "attributes": {
            "NORMAL": 21,
            "POSITION": 20,
            "TANGENT": 22,
            "TEXCOORD_0": 23
          },
          "indices": 24,
          "material": 4,
          "mode": 4
        }
      ]
    },
    {
      "name": "Bridge_Bridge_0",
      "primitives": [
        {
          "attributes": {
            "NORMAL": 26,
            "POSITION": 25,
            "TANGENT": 27,
            "TEXCOORD_0": 28
          },
          "indices": 29,
          "material": 5,
          "mode": 4
        }
      ]
    }
  ],
  "nodes": [
    {
      "children": [
        1
      ],
      "matrix": [
        1.0,
        0.0,
        0.0,
        0.0,
        0.0,
        2.220446049250313e-16,
        -1.0,
        0.0,
        0.0,
        1.0,
        2.220446049250313e-16,
        0.0,
        0.0,
        0.0,
        0.0,
        1.0
      ],
      "name": "Sketchfab_model"
    },
    {
      "children": [
        2
      ],
      "matrix": [
        0.009999999776482582,
        0.0,
        0.0,
        0.0,
        0.0,
        0.0,
        0.009999999776482582,
        0.0,
        0.0,
        -0.009999999776482582,
        0.0,
        0.0,
        0.0,
        0.0,
        0.0,
        1.0
      ],
      "name": "MOSCOT_ZEV_TT_SE.fbx"
    },
    {
      "children": [
        3,
        5,
        7,
        9,
        11,
        13
      ],
      "name": "RootNode"
    },
    {
      "children": [
        4
      ],
      "name": "MOSCOT_ZEV_TT_SE"
    },
    {
      "mesh": 0,
      "name": "MOSCOT_ZEV_TT_SE_MOSCOT_ZEV_TT_SE_0"
    },
    {
      "children": [
        6
      ],
      "name": "Rims"
    },
    {
      "mesh": 1,
      "name": "Rims_Rims_0"
    },
    {
      "children": [
        8
      ],
      "name": "NosePars"
    },
    {
      "mesh": 2,
      "name": "NosePars_NosePars_0"
    },
    {
      "children": [
        10
      ],
      "name": "Temples"
    },
    {
      "mesh": 3,
      "name": "Temples_Temples_0"
    },
    {
      "children": [
        12
      ],
      "name": "EndPieces"
    },
    {
      "mesh": 4,
      "name": "EndPieces_EndPieces_0"
    },
    {
      "children": [
        14
      ],
      "name": "Bridge"
    },
    {
      "mesh": 5,
      "name": "Bridge_Bridge_0"
    }
  ],
  "samplers": [
    {
      "magFilter": 9729,
      "minFilter": 9987,
      "wrapS": 10497,
      "wrapT": 10497
    }
  ],
  "scene": 0,
  "scenes": [
    {
      "name": "Sketchfab_Scene",
      "nodes": [
        0
      ]
    }
  ],
  "textures": [
    {
      "sampler": 0,
      "source": 0
    },
    {
      "sampler": 0,
      "source": 1
    },
    {
      "sampler": 0,
      "source": 2
    },
    {
      "sampler": 0,
      "source": 3
    },
    {
      "sampler": 0,
      "source": 4
    },
    {
      "sampler": 0,
      "source": 5
    },
    {
      "sampler": 0,
      "source": 6
    },
    {
      "sampler": 0,
      "source": 7
    },
    {
      "sampler": 0,
      "source": 8
    },
    {
      "sampler": 0,
      "source": 9
    },
    {
      "sampler": 0,
      "source": 10
    },
    {
      "sampler": 0,
      "source": 11
    },
    {
      "sampler": 0,
      "source": 12
    },
    {
      "sampler": 0,
      "source": 13
    },
    {
      "sampler": 0,
      "source": 14
    },
    {
      "sampler": 0,
      "source": 15
    },
    {
      "sampler": 0,
      "source": 16
    },
    {
      "sampler": 0,
      "source": 17
    },
    {
      "sampler": 0,
      "source": 18
    }
  ]
}
